<svg width="48" height="48" viewBox="0 0 48 48" fill="none" xmlns="http://www.w3.org/2000/svg">
<g id="Vector/Logo">
<g id="Vector">
<path d="M1.33325 28.4115C1.33325 22.5638 6.07375 17.8232 11.9215 17.8232C17.7692 17.8232 22.5097 22.5638 22.5097 28.4115V34.2938C22.5097 36.8928 20.4028 38.9997 17.8039 38.9997H11.9215C6.07375 38.9997 1.33325 34.2592 1.33325 28.4115Z" fill="url(#paint0_linear_3106_2047)"/>
<path d="M25.1555 14.2941C25.1555 11.3703 27.5258 9 30.4496 9C33.3735 9 35.7439 11.3703 35.7439 14.2941V15.0069C35.7439 16.4072 36.6379 17.6512 37.9653 18.0976L39.4693 18.6035C43.5699 19.9827 46.3319 23.826 46.3319 28.1523V28.4757C46.3319 34.2881 41.6203 39 35.8076 39H29.8614C27.2624 39 25.1555 36.8931 25.1555 34.2941V14.2941Z" fill="url(#paint1_linear_3106_2047)"/>
<path d="M44.7023 12.8182C44.3423 12.8182 44.0153 12.736 43.7206 12.5715C43.4326 12.4005 43.2036 12.1703 43.0336 11.8809C42.8699 11.5915 42.7883 11.2659 42.7883 10.9042C42.7883 10.5424 42.8733 10.2201 43.0433 9.93728C43.2136 9.64787 43.4426 9.42095 43.7306 9.25652C44.0183 9.08551 44.3423 9 44.7023 9C45.0619 9 45.3859 9.08551 45.6739 9.25652C45.9619 9.42095 46.1876 9.64787 46.3513 9.93728C46.5213 10.2201 46.6063 10.5424 46.6063 10.9042C46.6063 11.2659 46.5213 11.5915 46.3513 11.8809C46.1876 12.1703 45.9619 12.4005 45.6739 12.5715C45.3926 12.736 45.0686 12.8182 44.7023 12.8182ZM44.7023 12.5419C45.0096 12.5419 45.2846 12.4729 45.5266 12.3347C45.7753 12.19 45.9683 11.9927 46.1059 11.7428C46.2496 11.4928 46.3216 11.2133 46.3216 10.9042C46.3216 10.595 46.2496 10.3188 46.1059 10.0754C45.9683 9.82546 45.7753 9.63143 45.5266 9.49331C45.2846 9.3486 45.0096 9.27625 44.7023 9.27625C44.3946 9.27625 44.1166 9.3486 43.8679 9.49331C43.6256 9.63143 43.4326 9.82546 43.2886 10.0754C43.1513 10.3188 43.0826 10.595 43.0826 10.9042C43.0826 11.2133 43.1513 11.4928 43.2886 11.7428C43.4326 11.9927 43.6256 12.19 43.8679 12.3347C44.1166 12.4729 44.3946 12.5419 44.7023 12.5419ZM44.2996 11.95H43.9956V9.81889H44.7609C44.9899 9.81889 45.1733 9.87808 45.3106 9.99648C45.4483 10.1083 45.5169 10.2661 45.5169 10.4701C45.5169 10.6082 45.4809 10.7299 45.4089 10.8351C45.3369 10.9403 45.2256 11.0193 45.0753 11.0719L45.5563 11.95H45.2126L44.7806 11.1409H44.2996V11.95ZM45.1929 10.4799C45.1929 10.23 45.0456 10.105 44.7513 10.105H44.2996V10.8548H44.7513C44.8886 10.8548 44.9966 10.8252 45.0753 10.766C45.1536 10.7003 45.1929 10.6049 45.1929 10.4799Z" fill="url(#paint2_linear_3106_2047)"/>
</g>
</g>
<defs>
<linearGradient id="paint0_linear_3106_2047" x1="23.9999" y1="9" x2="23.9999" y2="39" gradientUnits="userSpaceOnUse">
<stop stop-color="#D743C8"/>
<stop offset="1" stop-color="#7435DB"/>
</linearGradient>
<linearGradient id="paint1_linear_3106_2047" x1="23.9999" y1="9" x2="23.9999" y2="39" gradientUnits="userSpaceOnUse">
<stop stop-color="#D743C8"/>
<stop offset="1" stop-color="#7435DB"/>
</linearGradient>
<linearGradient id="paint2_linear_3106_2047" x1="23.9999" y1="9" x2="23.9999" y2="39" gradientUnits="userSpaceOnUse">
<stop stop-color="#D743C8"/>
<stop offset="1" stop-color="#7435DB"/>
</linearGradient>
</defs>
</svg>
